{
    "asset" : {
        "generator" : "Khronos glTF Blender I/O v3.3.32",
        "version" : "2.0"
    },
    "scene" : 0,
    "scenes" : [
        {
            "name" : "Scene",
            "nodes" : [
                0,
                1
            ]
        }
    ],
    "nodes" : [
        {
            "mesh" : 0,
            "name" : "carton-lowpoly-bottom",
            "scale" : [
                0.010999999940395355,
                0.010999999940395355,
                0.010999999940395355
            ]
        },
        {
            "mesh" : 1,
            "name" : "carton-lowpoly-top",
            "scale" : [
                0.010999999940395355,
                0.010999999940395355,
                0.010999999940395355
            ]
        }
    ],
    "meshes" : [
        {
            "name" : "carton-lowpoly-bottom.001",
            "primitives" : [
                {
                    "attributes" : {
                        "POSITION" : 0,
                        "NORMAL" : 1
                    },
                    "indices" : 2
                }
            ]
        },
        {
            "name" : "carton-lowpoly-top.001",
            "primitives" : [
                {
                    "attributes" : {
                        "POSITION" : 3,
                        "NORMAL" : 4
                    },
                    "indices" : 5
                }
            ]
        }
    ],
    "accessors" : [
        {
            "bufferView" : 0,
            "componentType" : 5126,
            "count" : 3225,
            "max" : [
                44.14213562011719,
                9.100000381469727,
                64.14213562011719
            ],
            "min" : [
                0,
                -12.350000381469727,
                -1.3535838574128822e-13
            ],
            "type" : "VEC3"
        },
        {
            "bufferView" : 1,
            "componentType" : 5126,
            "count" : 3225,
            "type" : "VEC3"
        },
        {
            "bufferView" : 2,
            "componentType" : 5123,
            "count" : 3534,
            "type" : "SCALAR"
        },
        {
            "bufferView" : 3,
            "componentType" : 5126,
            "count" : 624,
            "max" : [
                44.14213562011719,
                14.449999809265137,
                64.14213562011719
            ],
            "min" : [
                -1.6919798217661028e-14,
                1.1279865760785001e-14,
                -1.0151879608222975e-13
            ],
            "type" : "VEC3"
        },
        {
            "bufferView" : 4,
            "componentType" : 5126,
            "count" : 624,
            "type" : "VEC3"
        },
        {
            "bufferView" : 5,
            "componentType" : 5123,
            "count" : 708,
            "type" : "SCALAR"
        }
    ],
    "bufferViews" : [
        {
            "buffer" : 0,
            "byteLength" : 38700,
            "byteOffset" : 0,
            "target" : 34962
        },
        {
            "buffer" : 0,
            "byteLength" : 38700,
            "byteOffset" : 38700,
            "target" : 34962
        },
        {
            "buffer" : 0,
            "byteLength" : 7068,
            "byteOffset" : 77400,
            "target" : 34963
        },
        {
            "buffer" : 0,
            "byteLength" : 7488,
            "byteOffset" : 84468,
            "target" : 34962
        },
        {
            "buffer" : 0,
            "byteLength" : 7488,
            "byteOffset" : 91956,
            "target" : 34962
        },
        {
            "buffer" : 0,
            "byteLength" : 1416,
            "byteOffset" : 99444,
            "target" : 34963
        }
    ],
    "buffers" : [
        {
            "byteLength" : 100860,
            "uri" : "data:application/octet-stream;base64,"
        }
    ]
}
