# Blender 3.3.1
# www.blender.org
mtllib chopping-board.mtl
o lowpoly-chopping-board
v -0.617934 0.000000 -0.835932
v -0.572686 0.000000 0.943951
v -0.617934 0.000000 0.835932
v -0.572686 0.000000 -0.943951
v -0.463450 0.000000 0.988694
v -0.463450 0.000000 -0.988694
v -0.401154 0.000000 -0.714133
v -0.374153 0.000000 -0.778593
v -0.308967 0.000000 -0.805293
v 0.463450 0.000000 -0.988694
v 0.308967 0.000000 -0.805293
v 0.374153 0.000000 -0.778593
v 0.401154 0.000000 -0.714133
v -0.374153 0.000000 -0.649673
v 0.463450 0.000000 0.988694
v -0.308967 0.000000 -0.622973
v 0.308967 0.000000 -0.622973
v 0.374153 0.000000 -0.649673
v 0.572686 0.000000 -0.943951
v 0.572686 0.000000 0.943951
v 0.617934 0.000000 -0.835932
v 0.617934 0.000000 0.835932
v -0.572686 0.061793 0.943951
v -0.617934 0.061793 -0.835932
v -0.617934 0.061793 0.835932
v -0.572686 0.061793 -0.943951
v -0.463450 0.061793 0.988694
v -0.463450 0.061793 -0.988694
v -0.401154 0.061793 -0.714133
v -0.374153 0.061793 -0.649673
v 0.463450 0.061793 0.988694
v -0.308967 0.061793 -0.622973
v 0.308967 0.061793 -0.622973
v 0.374153 0.061793 -0.649673
v 0.401154 0.061793 -0.714133
v -0.308967 0.061793 -0.805293
v 0.463450 0.061793 -0.988694
v -0.374153 0.061793 -0.778593
v 0.308967 0.061793 -0.805293
v 0.374153 0.061793 -0.778593
v 0.572686 0.061793 0.943951
v 0.572686 0.061793 -0.943951
v 0.617934 0.061793 0.835932
v 0.617934 0.061793 -0.835932
vn -0.0000 -1.0000 -0.0000
vn -0.0000 1.0000 -0.0000
vn 0.3790 -0.0000 0.9254
vn -0.0000 -0.0000 1.0000
vn -0.3790 -0.0000 0.9254
vn -0.9223 -0.0000 0.3864
vn -1.0000 -0.0000 -0.0000
vn -0.9223 -0.0000 -0.3864
vn -0.3790 -0.0000 -0.9254
vn -0.0000 -0.0000 -1.0000
vn 0.3790 -0.0000 -0.9254
vn 0.9223 -0.0000 -0.3864
vn 1.0000 -0.0000 -0.0000
vn 0.9223 -0.0000 0.3864
vn -0.9224 -0.0000 -0.3864
vn -0.9224 -0.0000 0.3864
s 0
f 1//1 2//1 3//1
f 2//1 1//1 4//1
f 2//1 4//1 5//1
f 5//1 4//1 6//1
f 5//1 6//1 7//1
f 7//1 6//1 8//1
f 8//1 6//1 9//1
f 9//1 6//1 10//1
f 9//1 10//1 11//1
f 11//1 10//1 12//1
f 12//1 10//1 13//1
f 5//1 14//1 15//1
f 14//1 5//1 7//1
f 15//1 14//1 16//1
f 15//1 16//1 17//1
f 15//1 17//1 18//1
f 15//1 18//1 13//1
f 15//1 13//1 10//1
f 15//1 10//1 19//1
f 15//1 19//1 20//1
f 20//1 19//1 21//1
f 20//1 21//1 22//1
f 23//2 24//2 25//2
f 24//2 23//2 26//2
f 26//2 23//2 27//2
f 26//2 27//2 28//2
f 28//2 27//2 29//2
f 29//2 27//2 30//2
f 30//2 27//2 31//2
f 30//2 31//2 32//2
f 32//2 31//2 33//2
f 33//2 31//2 34//2
f 34//2 31//2 35//2
f 28//2 36//2 37//2
f 36//2 28//2 38//2
f 38//2 28//2 29//2
f 37//2 36//2 39//2
f 37//2 39//2 40//2
f 37//2 40//2 35//2
f 37//2 35//2 31//2
f 37//2 31//2 41//2
f 37//2 41//2 42//2
f 42//2 41//2 43//2
f 42//2 43//2 44//2
f 41//3 15//3 20//3
f 15//3 41//3 31//3
f 31//4 5//4 15//4
f 5//4 31//4 27//4
f 27//5 2//5 5//5
f 2//5 27//5 23//5
f 25//6 2//6 23//6
f 2//6 25//6 3//6
f 24//7 3//7 25//7
f 3//7 24//7 1//7
f 26//8 1//8 24//8
f 1//8 26//8 4//8
f 26//9 6//9 4//9
f 6//9 26//9 28//9
f 28//10 10//10 6//10
f 10//10 28//10 37//10
f 37//11 19//11 10//11
f 19//11 37//11 42//11
f 19//12 44//12 21//12
f 44//12 19//12 42//12
f 21//13 43//13 22//13
f 43//13 21//13 44//13
f 22//14 41//14 20//14
f 41//14 22//14 43//14
f 30//11 16//11 14//11
f 16//11 30//11 32//11
f 32//10 17//10 16//10
f 17//10 32//10 33//10
f 33//9 18//9 17//9
f 18//9 33//9 34//9
f 35//15 18//15 34//15
f 18//15 35//15 13//15
f 40//16 13//16 35//16
f 13//16 40//16 12//16
f 40//5 11//5 12//5
f 11//5 40//5 39//5
f 39//4 9//4 11//4
f 9//4 39//4 36//4
f 36//3 8//3 9//3
f 8//3 36//3 38//3
f 8//14 29//14 7//14
f 29//14 8//14 38//14
f 7//12 30//12 14//12
f 30//12 7//12 29//12
