{
    "asset" : {
        "generator" : "Khronos glTF Blender I/O v3.3.32",
        "version" : "2.0"
    },
    "scene" : 0,
    "scenes" : [
        {
            "name" : "Scene",
            "nodes" : [
                0,
                1
            ]
        }
    ],
    "nodes" : [
        {
            "mesh" : 0,
            "name" : "lowpoly-plate",
            "scale" : [
                0.0191703662276268,
                0.0191703662276268,
                0.0191703662276268
            ]
        },
        {
            "mesh" : 1,
            "name" : "lowpoly-jello",
            "scale" : [
                0.0191703662276268,
                0.0191703662276268,
                0.0191703662276268
            ],
            "translation" : [
                0,
                0.0651228055357933,
                0
            ]
        }
    ],
    "meshes" : [
        {
            "name" : "lowpoly-plate",
            "primitives" : [
                {
                    "attributes" : {
                        "POSITION" : 0,
                        "NORMAL" : 1
                    },
                    "indices" : 2
                }
            ]
        },
        {
            "name" : "lowpoly-jello",
            "primitives" : [
                {
                    "attributes" : {
                        "POSITION" : 3,
                        "NORMAL" : 4
                    },
                    "indices" : 5
                }
            ]
        }
    ],
    "accessors" : [
        {
            "bufferView" : 0,
            "componentType" : 5126,
            "count" : 346,
            "max" : [
                30,
                5,
                30
            ],
            "min" : [
                -30,
                0,
                -30
            ],
            "type" : "VEC3"
        },
        {
            "bufferView" : 1,
            "componentType" : 5126,
            "count" : 346,
            "type" : "VEC3"
        },
        {
            "bufferView" : 2,
            "componentType" : 5123,
            "count" : 372,
            "type" : "SCALAR"
        },
        {
            "bufferView" : 3,
            "componentType" : 5126,
            "count" : 171,
            "max" : [
                26.93958854675293,
                18.02180290222168,
                26.93958854675293
            ],
            "min" : [
                -26.93958854675293,
                -2.8199664401962502e-15,
                -26.93958854675293
            ],
            "type" : "VEC3"
        },
        {
            "bufferView" : 4,
            "componentType" : 5126,
            "count" : 171,
            "type" : "VEC3"
        },
        {
            "bufferView" : 5,
            "componentType" : 5123,
            "count" : 180,
            "type" : "SCALAR"
        }
    ],
    "bufferViews" : [
        {
            "buffer" : 0,
            "byteLength" : 4152,
            "byteOffset" : 0,
            "target" : 34962
        },
        {
            "buffer" : 0,
            "byteLength" : 4152,
            "byteOffset" : 4152,
            "target" : 34962
        },
        {
            "buffer" : 0,
            "byteLength" : 744,
            "byteOffset" : 8304,
            "target" : 34963
        },
        {
            "buffer" : 0,
            "byteLength" : 2052,
            "byteOffset" : 9048,
            "target" : 34962
        },
        {
            "buffer" : 0,
            "byteLength" : 2052,
            "byteOffset" : 11100,
            "target" : 34962
        },
        {
            "buffer" : 0,
            "byteLength" : 360,
            "byteOffset" : 13152,
            "target" : 34963
        }
    ],
    "buffers" : [
        {
            "byteLength" : 13512,
            "uri" : "data:application/octet-stream;base64,"
        }
    ]
}
