# Blender 3.3.1
# www.blender.org
mtllib oven mitt.mtl
o Cube
v -0.354782 0.169331 -0.633119
v 0.219753 0.220435 -0.273421
v 0.061038 0.212813 -0.792247
v -0.214166 0.191030 -0.866491
v -0.267079 0.040394 -0.827097
v 0.295066 0.220673 0.233219
v 0.300155 0.157061 0.284695
v 0.462096 0.032005 -0.273596
v 0.269768 0.006420 0.244043
v -0.365932 0.181806 -0.257848
v 0.221560 0.007580 -0.281083
v 0.234958 0.204204 -0.536305
v -0.272888 0.218487 -0.617905
v -0.357627 0.035398 -0.505866
v -0.249906 0.217134 0.284428
v 0.250175 0.218055 0.306025
v -0.345313 0.002673 0.550475
v -0.250385 0.223628 0.347159
v -0.248532 0.008340 0.284655
v 0.345519 0.032917 -0.473430
v 0.249236 0.082406 -0.430775
v 0.310411 0.042887 0.294042
v 0.377617 0.019089 -0.057289
v 0.333074 0.009642 0.533850
v -0.303511 0.191656 0.280599
v 0.472703 0.125666 -0.462787
v -0.349710 0.163719 0.171686
v 0.102298 0.168762 -0.913342
v 0.028394 0.042234 -0.938292
v 0.270783 0.190673 -0.426087
v 0.385179 0.218507 -0.383761
v 0.366871 0.032401 -0.252503
v 0.214679 0.030698 -0.244967
v 0.203535 0.196797 -0.244390
v 0.203535 0.030671 -0.244390
v 0.310113 0.030671 -0.188168
v 0.398605 0.010489 -0.375833
v -0.060687 0.083737 -0.979344
v 0.270868 0.012275 0.282735
v -0.351672 0.080991 0.209123
v -0.241045 0.007588 -0.665157
v 0.477312 0.179850 -0.298197
v -0.300879 0.029620 0.277712
v -0.335479 0.223791 0.550732
v 0.258121 0.161674 -0.661139
v 0.194046 0.029329 -0.742609
v 0.325558 0.225616 0.551049
v 0.239311 0.001684 0.311159
v 0.372082 0.193277 -0.487477
v 0.266619 0.196797 -0.138698
v 0.189089 0.030671 -0.228948
v 0.258330 0.030671 -0.170665
vn -0.2026 0.9767 -0.0703
vn -0.8060 0.5537 -0.2092
vn -0.7054 0.7088 0.0004
vn -0.5672 -0.8220 -0.0509
vn -0.2813 0.8792 -0.3845
vn 0.1087 0.9810 -0.1605
vn 0.3630 0.7501 -0.5528
vn 0.0192 0.9989 -0.0429
vn 0.0260 -0.9980 -0.0570
vn 0.8441 0.4804 -0.2381
vn -0.4259 -0.8270 -0.3669
vn 0.1536 -0.9050 -0.3967
vn -0.1338 -0.9877 -0.0811
vn 0.3692 -0.9104 -0.1868
vn 0.4130 0.9078 -0.0737
vn 0.2420 0.9662 0.0893
vn 0.1502 0.9795 -0.1344
vn 0.0630 -0.9964 0.0568
vn -0.1450 -0.9887 -0.0381
vn 0.2936 -0.9559 -0.0035
vn 0.7947 0.6069 0.0043
vn 0.1154 0.9930 0.0263
vn 0.6257 -0.7800 0.0086
vn 0.7430 -0.6448 0.1795
vn 0.7195 0.6945 0.0112
vn 0.3384 -0.9378 0.0783
vn -0.9273 -0.2588 0.2704
vn -0.6329 -0.7732 -0.0397
vn 0.8052 0.0143 -0.5928
vn 0.1015 0.8551 -0.5084
vn -0.7315 0.6818 0.0085
vn -0.0903 0.9943 -0.0559
vn -0.2464 0.9672 0.0612
vn 0.0512 -0.9917 -0.1180
vn -0.3543 -0.9060 0.2318
vn 0.3481 -0.8900 0.2947
vn 0.3064 0.9177 0.2529
vn -0.3507 0.8996 0.2601
vn -0.8715 0.4681 0.1459
vn -0.1354 -0.2711 -0.9530
vn -0.7929 -0.1609 -0.5878
vn -0.0164 -0.8555 -0.5176
vn 0.1971 -0.9685 -0.1522
vn -0.4882 0.7507 -0.4451
vt 0.620056 0.286359
vt 0.828663 0.507733
vt 0.606394 0.043277
vt 0.870796 0.701227
vt 0.618840 0.128993
vt 0.872755 0.617017
vt 0.623065 0.183982
vt 0.837079 0.557423
vt 0.660873 0.544374
vt 0.514830 0.982231
vt 0.445312 0.026594
vt 0.402363 0.969049
vt 0.402091 0.969123
vt 0.400000 0.903247
vt 0.403905 0.002303
vt 0.569200 0.786064
vt 0.433041 0.732442
vt 0.591080 0.312634
vt 0.616830 0.709163
vt 0.621775 0.085030
vt 0.863666 0.666997
vt 0.875000 0.529796
vt 0.612063 0.215600
vt 0.614547 0.489044
vt 0.413154 0.222845
vt 0.408178 0.213515
vt 0.435698 1.000000
vt 0.412338 0.014960
vt 0.388229 0.494177
vt 0.397647 0.220419
vt 0.416901 0.533315
vt 0.617403 0.768842
vt 0.625000 0.813482
vt 0.707189 0.737035
vt 0.402047 0.753916
vt 0.405470 0.790828
vt 0.514357 0.760939
vt 0.389246 0.753764
vt 0.405485 0.261381
vt 0.594768 0.887567
vt 0.435031 0.325321
vt 0.818975 0.622901
vt 0.670754 0.610965
vt 0.622846 0.011382
vt 0.855570 0.738358
vt 0.586321 1.000000
vt 0.588884 0.010096
vt 0.595963 0.746788
vt 0.721433 0.584535
vt 0.415709 0.746387
vt 0.427380 0.403205
vt 0.609819 0.562469
vt 0.571043 0.962254
vt 0.567403 0.001211
vt 0.409145 0.494290
vt 0.387480 0.249735
vt 0.625000 0.101411
vt 0.798889 0.655044
vt 0.658403 0.648219
vt 0.388082 0.125304
vt 0.395014 0.716595
vt 0.610384 0.003103
vt 0.852743 0.749814
vt 0.612147 0.976685
s 1
f 13/23/1 1/1/2 10/18/3
f 1/1/2 14/24/4 10/18/3
f 1/2/2 13/22/1 4/8/5
f 4/8/5 3/6/6 28/42/7
f 2/4/8 11/19/9 45/58/10
f 5/9/11 29/43/12 41/52/13
f 41/52/13 46/59/14 11/19/9
f 12/20/15 3/5/6 2/3/8
f 45/57/10 3/5/6 12/20/15
f 3/5/6 4/7/5 13/23/1
f 2/3/8 13/23/1 6/11/16
f 31/47/17 2/3/8 6/11/16
f 41/52/13 11/19/9 9/17/18
f 19/31/19 9/17/18 39/50/20
f 7/12/21 6/10/16 16/27/22
f 8/16/23 7/12/21 22/36/24
f 8/16/23 42/53/25 6/10/16
f 23/37/26 22/36/24 39/50/20
f 23/37/26 39/50/20 9/17/18
f 40/51/27 14/24/4 43/55/28
f 3/5/6 13/23/1 2/3/8
f 26/40/29 49/64/30 31/46/17
f 43/55/28 25/39/31 40/51/27
f 25/39/31 18/30/32 15/25/33
f 19/31/19 48/61/34 17/29/35
f 48/61/34 24/38/36 17/29/35
f 47/60/37 18/30/32 44/56/38
f 39/50/20 48/61/34 19/31/19
f 26/40/29 42/53/25 8/16/23
f 10/18/3 40/51/27 27/41/39
f 10/18/3 27/41/39 25/39/31
f 29/43/12 28/42/7 46/59/14
f 38/49/40 29/43/12 5/9/11
f 21/34/41 20/32/42 11/19/9
f 37/48/43 20/32/42 26/40/29
f 20/32/42 21/33/41 49/64/30
f 11/19/9 37/48/43 9/17/18
f 30/44/44 31/47/17 49/62/30
f 31/47/17 30/44/44 2/3/8
f 37/48/43 11/19/9 20/32/42
f 21/34/41 30/45/44 49/63/30
f 5/9/11 1/2/2 4/8/5
f 5/9/11 4/8/5 38/49/40
f 38/49/40 4/8/5 28/42/7
f 38/49/40 28/42/7 29/43/12
f 3/6/6 45/58/10 28/42/7
f 12/21/15 2/4/8 45/58/10
f 14/24/4 5/9/11 41/52/13
f 41/52/13 29/43/12 46/59/14
f 6/11/16 13/23/1 15/25/33
f 6/11/16 15/25/33 16/28/22
f 19/31/19 41/52/13 9/17/18
f 43/55/28 41/52/13 19/31/19
f 7/12/21 8/16/23 6/10/16
f 37/48/43 23/37/26 9/17/18
f 37/48/43 8/16/23 23/37/26
f 40/51/27 10/18/3 14/24/4
f 15/25/33 10/18/3 25/39/31
f 14/24/4 41/52/13 43/55/28
f 42/53/25 26/40/29 31/46/17
f 15/25/33 13/23/1 10/18/3
f 39/50/20 22/35/24 24/38/36
f 43/55/28 17/29/35 25/39/31
f 44/56/38 18/30/32 25/39/31
f 24/38/36 48/61/34 39/50/20
f 24/38/36 47/60/37 44/56/38 17/29/35
f 47/60/37 24/38/36 7/13/21
f 43/55/28 19/31/19 17/29/35
f 16/28/22 18/30/32 47/60/37
f 15/26/33 18/30/32 16/28/22
f 44/56/38 25/39/31 17/29/35
f 22/36/24 7/14/21 24/38/36
f 37/48/43 26/40/29 8/16/23
f 25/39/31 27/41/39 40/51/27
f 23/37/26 8/16/23 22/36/24
f 46/59/14 45/58/10 11/19/9
f 46/59/14 28/42/7 45/58/10
f 14/24/4 1/2/2 5/9/11
f 26/40/29 20/32/42 49/64/30
f 47/60/37 7/15/21 16/28/22
f 6/11/16 42/54/25 31/47/17
f 11/19/9 2/4/8 21/34/41
f 21/34/41 2/4/8 30/45/44
